<?xml version="1.0" encoding="UTF-8"?>
<svg width="400px" height="203px" viewBox="0 0 400 203" version="1.1" xmlns="http://www.w3.org/2000/svg" xmlns:xlink="http://www.w3.org/1999/xlink" style="background: #FFFFFF;">
    <!-- Generator: Sketch 43.2 (39069) - http://www.bohemiancoding.com/sketch -->
    <title>VI-Logo</title>
    <desc>Created with Sketch.</desc>
    <defs></defs>
    <g id="Page-1" stroke="none" stroke-width="1" fill="none" fill-rule="evenodd">
        <g id="VI-Logo">
            <g id="1ST-ROW" transform="translate(18.000000, 16.000000)">
                <path d="M8.96484375,0.09375 L23.9765625,37.7109375 L39.1992188,0.09375 L48.1640625,0.09375 L25.5825806,54.4055786 L21.9553223,54.4055786 L0,0.09375 L8.96484375,0.09375 Z M86.8671875,7.79296875 L65.1054688,7.79296875 L65.1054688,20.8359375 L86.234375,20.8359375 L86.234375,28.5351562 L65.1054688,28.5351562 L65.1054688,46.6757812 L86.8671875,46.6757812 L86.8671875,54.375 L56.9140625,54.375 L56.9140625,0.09375 L86.8671875,0.09375 L86.8671875,7.79296875 Z M114.011719,31.2421875 L130.816406,54.375 L120.796875,54.375 L105.292969,32.15625 L103.816406,32.15625 L103.816406,54.375 L95.625,54.375 L95.625,0.09375 L105.222656,0.09375 C112.394567,0.09375 117.574203,1.44139277 120.761719,4.13671875 C124.277361,7.13673375 126.035156,11.0976316 126.035156,16.0195312 C126.035156,19.8633005 124.933605,23.1679549 122.730469,25.9335938 C120.527333,28.6992326 117.621112,30.4687461 114.011719,31.2421875 L114.011719,31.2421875 Z M103.816406,25.0195312 L106.417969,25.0195312 C114.17582,25.0195312 118.054688,22.0547171 118.054688,16.125 C118.054688,10.5702847 114.281288,7.79296875 106.734375,7.79296875 L103.816406,7.79296875 L103.816406,25.0195312 Z M139.074219,54.375 L149.709081,0.0553975939 L152.278432,2.84217094e-14 L169.132812,38.203125 L186.702393,0.0422641768 L189.088379,0 L198.699219,54.375 L190.296875,54.375 L185.058594,21.609375 L170.089918,54.4618509 L167.918569,54.4433615 L153.382812,21.5742188 L147.546875,54.375 L139.074219,54.375 Z M272.53125,54.375 L272.53125,0.0458984375 L275.976074,0 L312.117188,37.8164062 L312.117188,0.09375 L320.308594,0.09375 L320.308594,54.4353027 L317.28833,54.4353027 L280.722656,16.3710937 L280.722656,54.375 L272.53125,54.375 Z M350.292969,7.79296875 L350.292969,54.375 L342.101562,54.375 L342.101562,7.79296875 L329.621094,7.79296875 L329.621094,0.09375 L362.738281,0.09375 L362.738281,7.79296875 L350.292969,7.79296875 Z" id="VERMONT" fill="#000000"></path>
                <g id="MOON" transform="translate(205.000000, 6.000000)" fill="#057544">
                    <path d="M8.58859975,8.47720175 C14.2904044,2.82570566 21.14205,0 29.1437423,0 C37.0496058,0 43.8293811,2.84985699 49.4832714,8.54965646 C55.1611188,14.2494559 58,21.0963581 58,29.0905684 C58,37.1330821 55.1491404,43.9558329 49.4473358,49.5590256 C43.721574,55.18637 36.8100364,58 28.7125155,58 C21.549324,58 15.1169224,55.5003373 9.41511772,50.5009369 C3.13834119,44.9701993 0,37.7248002 0,28.7645222 C0,20.8910704 2.86283796,14.1286978 8.58859975,8.47720175 Z M8,28.8556701 C8,35.0137765 10.1048741,40.0772997 14.3146853,44.0463918 C18.5000209,48.0154838 23.3338887,50 28.8164336,50 C34.7640158,50 39.7814481,47.9794016 43.8688811,43.9381443 C47.9563141,39.8487768 50,34.8694452 50,29 C50,23.0583895 47.9807894,18.0790579 43.9423077,14.0618557 C39.9283016,10.0205984 34.9598198,8 29.0367133,8 C23.1380824,8 18.157363,10.0205984 14.0944056,14.0618557 C10.0314482,18.0550028 8,22.9862249 8,28.8556701 Z" id="Combined-Shape"></path>
                </g>
            </g>
            <path d="M21,148.074217 C21,148.074217 74.1628748,93.6328128 99.5294597,99.674213 C124.896045,105.715613 148.107763,128.461491 171.912967,128.566406 C207.695895,128.724109 246.983808,98.9162324 289.003821,88.7782457 C333.402344,78.0664062 378,148.074219 378,148.074219" id="2ND-ROW" stroke="#057544" stroke-width="8"></path>
            <g id="3RD-ROW" transform="translate(18.000000, 160.000000)" fill="#000000">
                <g id="INTERACTIVE">
                    <polygon points="363.480465 4.12955051 353.80859 4.12955051 353.80859 9.92642551 363.199215 9.92642551 363.199215 13.3483005 353.80859 13.3483005 353.80859 21.4108005 363.480465 21.4108005 363.480465 24.8326755 350.167965 24.8326755 350.167965 0.707675514 363.480465 0.707675514"></polygon>
                    <path d="M320.126652,25 L330.267965,0.707675514 L326.28359,0.707675514 L319.517965,17.4264255 L312.84609,0.707675514 L308.861715,0.707675514 L318.768886,25 L320.126652,25 Z" id="Combined-Shape"></path>
                    <polygon points="288.930466 0.707675514 288.930466 24.8326755 285.289841 24.8326755 285.289841 0.707675514"></polygon>
                    <polygon points="259.608591 4.12955051 259.608591 24.8326755 255.967966 24.8326755 255.967966 4.12955051 250.421091 4.12955051 250.421091 0.707675514 265.139841 0.707675514 265.139841 4.12955051"></polygon>
                    <path d="M231.458591,2.00455051 L231.458591,6.31705051 C229.354414,4.55662505 227.177353,3.67642551 224.927341,3.67642551 C222.448162,3.67642551 220.359642,4.56704161 218.661716,6.34830051 C216.953375,8.1191427 216.099216,10.2857877 216.099216,12.8483005 C216.099216,15.3795632 216.953375,17.5149585 218.661716,19.2545505 C220.370058,20.9941425 222.463787,21.8639255 224.942966,21.8639255 C226.224223,21.8639255 227.312754,21.6555943 228.208591,21.2389255 C228.708594,21.0305911 229.226818,20.749344 229.763279,20.3951755 C230.29974,20.0410071 230.864838,19.613928 231.458591,19.1139255 L231.458591,23.5045505 C229.375248,24.6816397 227.18777,25.2701755 224.896091,25.2701755 C221.448158,25.2701755 218.505479,24.0670625 216.067966,21.6608005 C213.640871,19.233705 212.427341,16.306651 212.427341,12.8795505 C212.427341,9.80661848 213.442956,7.06706255 215.474216,4.66080051 C217.974229,1.71286911 221.208572,0.238925514 225.177341,0.238925514 C227.344019,0.238925514 229.437748,0.827461295 231.458591,2.00455051 Z"></path>
                    <path d="M182.48249,1 L184.136197,1 L194.839842,24.8326755 L190.855467,24.8326755 L188.324217,18.9733005 L177.996092,18.9733005 L175.308592,24.8326755 L171.386717,24.8326755 L182.48249,1 Z M186.839842,15.5514255 L183.261717,7.34830051 L179.511717,15.5514255 L186.839842,15.5514255 Z" id="Combined-Shape"></path>
                    <path d="M146.158592,14.5514255 L153.627342,24.8326755 L149.174217,24.8326755 L142.283592,14.9576755 L141.627342,14.9576755 L141.627342,24.8326755 L137.986717,24.8326755 L137.986717,0.707675514 L142.252342,0.707675514 C145.439858,0.707675514 147.741918,1.30662786 149.158592,2.50455051 C150.7211,3.83789051 151.502342,5.59828958 151.502342,7.78580051 C151.502342,9.49414239 151.012764,10.9628777 150.033592,12.1920505 C149.054421,13.4212233 147.762767,14.2076738 146.158592,14.5514255 Z M141.627342,11.7858005 L142.783592,11.7858005 C146.231526,11.7858005 147.955467,10.4681054 147.955467,7.83267551 C147.955467,5.36391317 146.278401,4.12955051 142.924217,4.12955051 L141.627342,4.12955051 L141.627342,11.7858005 Z"></path>
                    <polygon points="116.305468 4.12955051 106.633593 4.12955051 106.633593 9.92642551 116.024218 9.92642551 116.024218 13.3483005 106.633593 13.3483005 106.633593 21.4108005 116.305468 21.4108005 116.305468 24.8326755 102.992968 24.8326755 102.992968 0.707675514 116.305468 0.707675514"></polygon>
                    <polygon points="77.311718 4.12955051 77.311718 24.8326755 73.671093 24.8326755 73.671093 4.12955051 68.124218 4.12955051 68.124218 0.707675514 82.842968 0.707675514 82.842968 4.12955051"></polygon>
                    <path d="M46.7270651,25 L30.3804684,7.94205051 L30.3804684,24.8326755 L26.7398434,24.8326755 L26.7398434,1 L28.5874674,1 L44.3335934,17.4733005 L44.3335934,1 L47.9742184,1 L47.9742184,25 L46.7270651,25 Z" id="Combined-Shape"></path>
                    <polygon points="4.04296875 1.70767551 4.04296875 25.8326755 0.40234375 25.8326755 0.40234375 1.70767551"></polygon>
                </g>
            </g>
        </g>
    </g>
</svg>
